<svg width="24" height="24" viewBox="0 0 48 48" fill="none" xmlns="http://www.w3.org/2000/svg"><path d="M8 6H1c-.55 0-1 .45-1 1v1c0 .55.45 1 1 1h7c.55 0 1-.45 1-1V7c0-.55-.45-1-1-1zm0 5H1c-.55 0-1 .45-1 1v1c0 .55.45 1 1 1h7c.55 0 1-.45 1-1v-1c0-.55-.45-1-1-1zm0 5H1c-.55 0-1 .45-1 1v1c0 .55.45 1 1 1h7c.55 0 1-.45 1-1v-1c0-.55-.45-1-1-1zM8 1H1c-.55 0-1 .45-1 1v1c0 .55.45 1 1 1h7c.55 0 1-.45 1-1V2c0-.55-.45-1-1-1zm11 0h-7c-.55 0-1 .45-1 1v16c0 .55.45 1 1 1h7c.55 0 1-.45 1-1V2c0-.55-.45-1-1-1z" fill="currentColor"/></svg>