<svg width="24" height="24" viewBox="0 0 48 48" fill="none" xmlns="http://www.w3.org/2000/svg"><path d="M17 1h-5c0-.55-.45-1-1-1H9c-.55 0-1 .45-1 1H3c-.55 0-1 .45-1 1v1h16V2c0-.55-.45-1-1-1zm.5 3h-15c-.28 0-.5.22-.5.5s.22.5.5.5H3v14c0 .55.45 1 1 1h12c.55 0 1-.45 1-1V5h.5c.28 0 .5-.22.5-.5s-.22-.5-.5-.5zM7 16c0 .55-.45 1-1 1s-1-.45-1-1V8c0-.55.45-1 1-1s1 .45 1 1v8zm4 0c0 .55-.45 1-1 1s-1-.45-1-1V8c0-.55.45-1 1-1s1 .45 1 1v8zm4 0c0 .55-.45 1-1 1s-1-.45-1-1V8c0-.55.45-1 1-1s1 .45 1 1v8z" fill="currentColor"/></svg>